<svg xmlns="http://www.w3.org/2000/svg" xmlns:xlink="http://www.w3.org/1999/xlink" width="1200" height="630" viewBox="0 0 1200 630" role="img" aria-labelledby="title desc">
	<title id="title">Word Order Illustrator</title>
	<desc id="desc">A minimal word-order diagram comparing English and Turkish with colored relation lines over a soft multilingual background.</desc>
	<defs>
		<linearGradient id="page-wash" x1="0" y1="0" x2="1" y2="1">
			<stop offset="0" stop-color="#fcfaf8" />
			<stop offset="0.5" stop-color="#f8f7f5" />
			<stop offset="1" stop-color="#fcfaf7" />
		</linearGradient>
		<filter id="blur-xl" x="-40%" y="-40%" width="180%" height="180%">
			<feGaussianBlur stdDeviation="96" />
		</filter>
		<filter id="blur-lg" x="-40%" y="-40%" width="180%" height="180%">
			<feGaussianBlur stdDeviation="56" />
		</filter>
		<filter id="grain" x="0" y="0" width="100%" height="100%">
			<feTurbulence type="fractalNoise" baseFrequency="0.9" numOctaves="2" stitchTiles="stitch" />
			<feColorMatrix type="saturate" values="0" />
			<feComponentTransfer>
				<feFuncA type="table" tableValues="0 0.028" />
			</feComponentTransfer>
		</filter>
		<style>
			.ui { font-family: "Noto Sans CJK JP"; }
			.bg-word { font-size: 48px; font-weight: 800; opacity: 0.16; }
			.small-bg-word { font-size: 34px; font-weight: 800; opacity: 0.13; }
			.line { fill: none; stroke-linecap: round; stroke-width: 5; }
			.net { fill: none; stroke-width: 1; opacity: 0.16; }
			.dot { opacity: 0.18; }
		</style>
	</defs>

	<rect width="1200" height="630" fill="url(#page-wash)" />
	<g aria-hidden="true">
		<g filter="url(#blur-xl)" opacity="0.42">
			<ellipse cx="-36" cy="-34" rx="330" ry="238" transform="rotate(-18 -36 -34)" fill="#ffd7dc" />
			<ellipse cx="1236" cy="-28" rx="346" ry="246" transform="rotate(16 1236 -28)" fill="#d6eaff" />
			<ellipse cx="-42" cy="668" rx="344" ry="250" transform="rotate(18 -42 668)" fill="#d9f1df" />
			<ellipse cx="1242" cy="662" rx="336" ry="242" transform="rotate(-16 1242 662)" fill="#ffe5c8" />
		</g>
		<g filter="url(#blur-lg)" opacity="0.18">
			<ellipse cx="118" cy="84" rx="186" ry="132" transform="rotate(-28 118 84)" fill="#fff2f4" />
			<ellipse cx="1088" cy="94" rx="198" ry="138" transform="rotate(24 1088 94)" fill="#eef6ff" />
			<ellipse cx="126" cy="548" rx="204" ry="146" transform="rotate(22 126 548)" fill="#eef8f0" />
			<ellipse cx="1084" cy="536" rx="194" ry="136" transform="rotate(-22 1084 536)" fill="#fff4e8" />
		</g>
	</g>

	<g aria-hidden="true">
		<g fill="#ff0070" opacity="0.16"><path d="M 35.953125 -26.296875 L 30.09375 -27.703125 C 30.046875 -26.96875 29.859375 -25.78125 29.65625 -24.8125 L 28.796875 -24.8125 C 26.453125 -24.8125 23.953125 -24.484375 21.640625 -23.953125 L 21.984375 -28.3125 C 27.890625 -28.5625 34.3125 -29.140625 39.03125 -30 L 38.96875 -35.5625 C 33.703125 -34.3125 28.515625 -33.703125 22.65625 -33.453125 L 23.140625 -36.09375 C 23.328125 -36.8125 23.515625 -37.6875 23.8125 -38.640625 L 17.5625 -38.78125 C 17.609375 -37.96875 17.515625 -36.8125 17.46875 -35.90625 L 17.1875 -33.3125 L 15.265625 -33.3125 C 12.34375 -33.3125 8.109375 -33.703125 6.4375 -33.984375 L 6.578125 -28.421875 C 8.828125 -28.3125 12.578125 -28.125 15.078125 -28.125 L 16.609375 -28.125 C 16.421875 -26.15625 16.265625 -24.140625 16.171875 -22.078125 C 9.453125 -18.90625 4.375 -12.484375 4.375 -6.28125 C 4.375 -1.4375 7.34375 0.671875 10.84375 0.671875 C 13.390625 0.671875 15.9375 -0.09375 18.28125 -1.25 L 18.90625 0.71875 L 24.4375 -0.953125 C 24.046875 -2.109375 23.65625 -3.3125 23.328125 -4.515625 C 26.96875 -7.53125 30.8125 -12.578125 33.40625 -19.109375 C 36.71875 -17.8125 38.40625 -15.265625 38.40625 -12.390625 C 38.40625 -7.6875 34.65625 -2.96875 25.390625 -1.96875 L 28.5625 3.078125 C 40.375 1.296875 44.359375 -5.28125 44.359375 -12.09375 C 44.359375 -17.65625 40.65625 -22.03125 35.09375 -23.859375 Z M 28.078125 -19.921875 C 26.453125 -16.03125 24.34375 -13.15625 21.984375 -10.796875 C 21.640625 -13.203125 21.453125 -15.796875 21.453125 -18.71875 L 21.453125 -18.859375 C 23.328125 -19.4375 25.53125 -19.875 28.078125 -19.921875 Z M 17.046875 -6.765625 C 15.3125 -5.765625 13.578125 -5.1875 12.234375 -5.1875 C 10.703125 -5.1875 10.03125 -6 10.03125 -7.53125 C 10.03125 -10.265625 12.4375 -13.921875 16.03125 -16.375 C 16.125 -13.0625 16.515625 -9.75 17.046875 -6.765625 Z M 17.046875 -6.765625 " transform="translate(34 72)" /></g>
		<g fill="#b06b7a" opacity="0.13"><path d="M 1.734375 0 L 11.65625 0 L 11.65625 -3.640625 C 9.015625 -6.015625 7.453125 -8.9375 7.453125 -13.265625 C 7.453125 -17.921875 9.71875 -21.3125 13.53125 -21.3125 C 17.375 -21.3125 19.65625 -17.921875 19.65625 -13.265625 C 19.65625 -8.9375 18.125 -6.015625 15.4375 -3.640625 L 15.4375 0 L 25.359375 0 L 25.359375 -4.078125 L 20.90625 -4.078125 L 20.90625 -4.21875 C 22.71875 -6.015625 24.8125 -9.28125 24.8125 -13.734375 C 24.8125 -20.734375 20.296875 -25.640625 13.53125 -25.640625 C 6.765625 -25.640625 2.28125 -20.734375 2.28125 -13.734375 C 2.28125 -9.28125 4.390625 -6.015625 6.1875 -4.21875 L 6.1875 -4.078125 L 1.734375 -4.078125 Z M 1.734375 0 " transform="translate(96 148)" /></g>
		<g fill="#9b5870" opacity="0.16"><path d="M 0.140625 0 L 7.828125 0 L 15.75 -15.59375 L 19.78125 -15.59375 L 19.78125 0 L 26.546875 0 L 26.546875 -15.59375 L 30.625 -15.59375 L 38.546875 0 L 46.125 0 L 35.71875 -18.71875 L 38.96875 -25.96875 C 40.3125 -29.046875 41.46875 -29.5625 43.109375 -29.5625 C 43.4375 -29.5625 44.015625 -29.515625 44.59375 -29.375 L 45.75 -35.765625 C 45.03125 -36.09375 44.015625 -36.1875 43.109375 -36.1875 C 39.265625 -36.1875 36.484375 -34.84375 34.078125 -29.765625 L 30.140625 -21.3125 L 26.546875 -21.3125 L 26.546875 -35.5625 L 19.78125 -35.5625 L 19.78125 -21.3125 L 16.21875 -21.3125 L 12.234375 -29.765625 C 9.84375 -34.84375 7.0625 -36.1875 3.21875 -36.1875 C 2.296875 -36.1875 1.296875 -36.09375 0.578125 -35.765625 L 1.734375 -29.375 C 2.25 -29.515625 2.875 -29.5625 3.171875 -29.5625 C 4.796875 -29.5625 6 -29.046875 7.390625 -25.96875 L 10.65625 -18.71875 Z M 0.140625 0 " transform="translate(214 124)" /></g>
		<g fill="#8f6f86" opacity="0.13"><path d="M 2.6875 0 L 7.6875 0 L 7.6875 -13.09375 C 9.078125 -14.484375 10.09375 -15.234375 11.625 -15.234375 C 13.5 -15.234375 14.3125 -14.21875 14.3125 -11.25 L 14.3125 0 L 19.3125 0 L 19.3125 -11.859375 C 19.3125 -16.65625 17.546875 -19.515625 13.4375 -19.515625 C 10.84375 -19.515625 8.90625 -18.15625 7.234375 -16.53125 L 7.140625 -16.53125 L 6.765625 -19.046875 L 2.6875 -19.046875 Z M 14.515625 -22.171875 C 17.375 -22.171875 18.9375 -24.140625 19 -27.84375 L 15.875 -27.984375 C 15.703125 -26.421875 15.265625 -25.671875 14.421875 -25.671875 C 13.015625 -25.671875 11.765625 -28.328125 9.28125 -28.328125 C 6.359375 -28.328125 4.828125 -26.34375 4.765625 -22.640625 L 7.921875 -22.4375 C 8.03125 -24.078125 8.5 -24.8125 9.34375 -24.8125 C 10.75 -24.8125 12 -22.171875 14.515625 -22.171875 Z M 14.515625 -22.171875 " transform="translate(300 94)" /></g>
		<g fill="#9b8378" opacity="0.13"><path d="M 22.40625 -17.40625 L 19.203125 -17.40625 L 19.203125 0 L 14.65625 0 L 14.65625 -4.828125 C 13.882812 -4.367188 13.082031 -4.015625 12.25 -3.765625 C 11.425781 -3.523438 10.472656 -3.40625 9.390625 -3.40625 C 7.253906 -3.40625 5.582031 -3.894531 4.375 -4.875 C 3.175781 -5.863281 2.578125 -7.175781 2.578125 -8.8125 C 2.578125 -9.300781 2.644531 -9.789062 2.78125 -10.28125 C 2.914062 -10.769531 3.132812 -11.226562 3.4375 -11.65625 C 2.707031 -12.113281 2.132812 -12.675781 1.71875 -13.34375 C 1.300781 -14.007812 1.09375 -14.738281 1.09375 -15.53125 C 1.09375 -16.28125 1.191406 -16.90625 1.390625 -17.40625 L 0 -17.40625 L 0 -21.140625 L 22.40625 -21.140625 Z M 7.140625 -8.90625 C 7.140625 -8.289062 7.394531 -7.84375 7.90625 -7.5625 C 8.414062 -7.28125 9.019531 -7.140625 9.71875 -7.140625 C 10.875 -7.140625 11.847656 -7.398438 12.640625 -7.921875 C 13.441406 -8.441406 14.113281 -9 14.65625 -9.59375 L 14.65625 -17.40625 L 6.09375 -17.40625 C 5.8125 -17.039062 5.671875 -16.632812 5.671875 -16.1875 C 5.671875 -15.664062 5.800781 -15.234375 6.0625 -14.890625 C 6.320312 -14.546875 6.671875 -14.304688 7.109375 -14.171875 C 7.785156 -14.335938 8.53125 -14.421875 9.34375 -14.421875 C 9.644531 -14.421875 9.960938 -14.398438 10.296875 -14.359375 C 10.640625 -14.328125 10.890625 -14.289062 11.046875 -14.25 L 10.8125 -10.609375 C 10.71875 -10.628906 10.59375 -10.640625 10.4375 -10.640625 C 10.28125 -10.640625 10.109375 -10.640625 9.921875 -10.640625 C 8.066406 -10.640625 7.140625 -10.0625 7.140625 -8.90625 Z M 7.140625 -8.90625 " transform="translate(38 288)" /></g>
		<g fill="#9c9a70" opacity="0.13"><path d="M 10.984375 0.46875 C 13.328125 0.46875 15.734375 -0.34375 17.609375 -1.625 L 15.90625 -4.6875 C 14.515625 -3.84375 13.1875 -3.40625 11.65625 -3.40625 C 8.8125 -3.40625 6.765625 -5 6.359375 -8.09375 L 18.09375 -8.09375 C 18.21875 -8.5625 18.328125 -9.484375 18.328125 -10.40625 C 18.328125 -15.703125 15.609375 -19.515625 10.375 -19.515625 C 5.84375 -19.515625 1.5 -15.671875 1.5 -9.515625 C 1.5 -3.234375 5.640625 0.46875 10.984375 0.46875 Z M 6.25 -11.453125 C 6.65625 -14.21875 8.4375 -15.640625 10.4375 -15.640625 C 12.921875 -15.640625 14.046875 -14.015625 14.046875 -11.453125 Z M 3.5 -23.53125 L 5.46875 -21.71875 L 10.203125 -25.46875 L 10.375 -25.46875 L 15.125 -21.71875 L 17.0625 -23.53125 L 12.859375 -28.65625 L 7.75 -28.65625 Z M 3.5 -23.53125 " transform="translate(112 296)" /></g>
		<g fill="#43ad65" opacity="0.16"><path d="M 3.75 -25.734375 L 3.75 -21.359375 L 17.609375 -21.359375 L 17.609375 -25.734375 Z M 4.03125 -39.265625 L 4.03125 -34.9375 L 17.65625 -34.9375 L 17.65625 -39.265625 Z M 3.75 -19.015625 L 3.75 -14.640625 L 17.609375 -14.640625 L 17.609375 -19.015625 Z M 1.4375 -32.640625 L 1.4375 -28.078125 L 19.34375 -28.078125 L 19.34375 -32.640625 Z M 22.5625 -13.734375 L 22.5625 4.3125 L 27.984375 4.3125 L 27.984375 2.453125 L 38.0625 2.453125 L 38.0625 4.125 L 43.6875 4.125 L 43.6875 -13.734375 Z M 27.984375 -2.6875 L 27.984375 -8.59375 L 38.0625 -8.59375 L 38.0625 -2.6875 Z M 19.109375 -21.3125 L 19.109375 -16.265625 L 46.75 -16.265625 L 46.75 -21.3125 L 42.625 -21.3125 L 42.625 -31.109375 L 32.203125 -31.109375 L 32.734375 -34.515625 L 45.03125 -34.515625 L 45.03125 -39.40625 L 20.828125 -39.40625 L 20.828125 -34.515625 L 27.125 -34.515625 L 26.640625 -31.109375 L 21.59375 -31.109375 L 21.59375 -26.203125 L 25.875 -26.203125 L 25.015625 -21.3125 Z M 31.4375 -26.203125 L 37.109375 -26.203125 L 37.109375 -21.3125 L 30.578125 -21.3125 Z M 3.59375 -12.1875 L 3.59375 4.265625 L 8.453125 4.265625 L 8.453125 2.40625 L 17.953125 2.40625 L 17.953125 -12.1875 Z M 8.453125 -7.625 L 13.0625 -7.625 L 13.0625 -2.15625 L 8.453125 -2.15625 Z M 8.453125 -7.625 " transform="translate(56 508)" /></g>
		<g fill="#54a86b" opacity="0.13"><path d="M 10.640625 -20.5 C 6.125 -20.5 2.890625 -18.015625 2.890625 -14.453125 C 2.890625 -10.8125 6.125 -8.359375 10.640625 -8.359375 C 15.15625 -8.359375 18.390625 -10.8125 18.390625 -14.453125 C 18.390625 -18.015625 15.15625 -20.5 10.640625 -20.5 Z M 10.640625 -17.0625 C 12.640625 -17.0625 14.046875 -16.15625 14.046875 -14.453125 C 14.046875 -12.71875 12.640625 -11.796875 10.640625 -11.796875 C 8.640625 -11.796875 7.234375 -12.71875 7.234375 -14.453125 C 7.234375 -16.15625 8.640625 -17.0625 10.640625 -17.0625 Z M 21.625 -28.453125 L 21.625 -4.9375 L 26.140625 -4.9375 L 26.140625 -15.125 L 30.328125 -15.125 L 30.328125 -18.875 L 26.140625 -18.875 L 26.140625 -28.453125 Z M 8.390625 -28.484375 L 8.390625 -25.15625 L 1.390625 -25.15625 L 1.390625 -21.625 L 19.890625 -21.625 L 19.890625 -25.15625 L 12.890625 -25.15625 L 12.890625 -28.484375 Z M 5.84375 -6.703125 L 5.84375 2.484375 L 27.265625 2.484375 L 27.265625 -1.15625 L 10.40625 -1.15625 L 10.40625 -6.703125 Z M 5.84375 -6.703125 " transform="translate(192 526)" /></g>
		<g fill="#43ad65" opacity="0.13"><path d="M 15.875 0.46875 C 20.328125 0.46875 22.71875 -2.28125 22.71875 -5.671875 C 22.71875 -11.703125 15.703125 -11.390625 15.703125 -14.25 C 15.703125 -16.421875 18.875 -17.578125 18.875 -21.3125 C 18.875 -24.578125 16.3125 -27.546875 11.421875 -27.546875 C 5.578125 -27.546875 2.6875 -24 2.6875 -19.078125 L 2.6875 0 L 7.609375 0 L 7.609375 -18.421875 C 7.609375 -21.6875 8.9375 -23.59375 11.390625 -23.59375 C 13.09375 -23.59375 14.046875 -22.40625 14.046875 -20.78125 C 14.046875 -17.8125 11.15625 -16.765625 11.15625 -13.671875 C 11.15625 -8.5 18.15625 -8.8125 18.15625 -5.46875 C 18.15625 -4.21875 17.234375 -3.265625 15.703125 -3.265625 C 14.484375 -3.265625 13.265625 -3.734375 11.9375 -4.71875 L 10.171875 -1.328125 C 11.9375 -0.203125 13.671875 0.46875 15.875 0.46875 Z M 15.875 0.46875 " transform="translate(136 586)" /></g>
		<g fill="#54a86b" opacity="0.13"><path d="M 5.921875 0.40625 L 10.875 -13.640625 L 11.015625 -13.640625 L 15.15625 0 L 20.53125 0 L 13.640625 -19.546875 C 11.96875 -25.09375 9.65625 -27.609375 5.4375 -27.609375 C 3.296875 -27.609375 2.25 -27.296875 1.09375 -26.828125 L 2.25 -22.78125 C 3.03125 -23.15625 3.703125 -23.390625 4.859375 -23.390625 C 6.59375 -23.390625 7.984375 -22.171875 8.609375 -19.828125 L 8.734375 -19.203125 L 0.546875 0 Z M 5.921875 0.40625 " transform="translate(328 592)" /></g>
		<g fill="#4996d5" opacity="0.16"><path d="M 37.15625 -28.125 L 40.671875 -28.125 L 40.671875 -24.609375 L 37.15625 -24.609375 Z M 40.078125 -22.265625 L 43.59375 -22.265625 L 43.59375 -18.75 L 40.078125 -18.75 Z M 34.21875 -22.265625 L 37.734375 -22.265625 L 37.734375 -18.75 L 34.21875 -18.75 Z M 24.3125 0.9375 C 25.21875 -0.6875 25.671875 -2.40625 25.671875 -4.21875 C 25.671875 -6.125 25.535156 -7.578125 25.265625 -8.578125 L 23.765625 -14.0625 L 32.15625 -14.0625 L 33 -10.40625 C 33.25 -9.25 33.59375 -8.203125 34.03125 -7.265625 C 34.457031 -6.347656 35.316406 -5.878906 36.609375 -5.859375 C 37.722656 -5.847656 38.46875 -6.265625 38.84375 -7.109375 C 39.414062 -8.421875 39.703125 -10.738281 39.703125 -14.0625 L 48.09375 -14.0625 C 48.09375 -10.863281 48.242188 -8.875 48.546875 -8.09375 C 49.109375 -6.601562 49.90625 -5.859375 50.9375 -5.859375 C 52.882812 -5.859375 53.859375 -7.46875 53.859375 -10.6875 L 53.859375 -17.578125 L 62.25 -17.578125 L 62.25 -9.5625 C 62.25 -6.457031 61.53125 -4.019531 60.09375 -2.25 C 58.96875 -0.863281 57.304688 0.0195312 55.109375 0.40625 C 54.054688 0.59375 52.648438 0.6875 50.890625 0.6875 C 49.617188 0.6875 48.53125 0.457031 47.625 0 C 45.300781 -1.125 44.0625 -2.445312 43.90625 -3.96875 C 43.351562 -1.882812 42 -0.5625 39.84375 0 C 38.71875 0.28125 37.609375 0.421875 36.515625 0.421875 C 35.171875 0.421875 33.96875 -0.28125 32.90625 -1.6875 C 32.90625 1.175781 32.296875 3.53125 31.078125 5.375 C 29.203125 8.195312 26.429688 10.109375 22.765625 11.109375 C 21.265625 11.515625 19.359375 11.71875 17.046875 11.71875 C 13.929688 11.71875 11.554688 11.4375 9.921875 10.875 C 5.335938 9.300781 3.046875 5.847656 3.046875 0.515625 C 3.046875 -2.546875 3.867188 -5.484375 5.515625 -8.296875 L 13.90625 -8.296875 C 12.21875 -5.078125 11.378906 -2.140625 11.390625 0.515625 C 11.410156 3.003906 12.535156 4.566406 14.765625 5.203125 C 15.359375 5.378906 16.070312 5.46875 16.90625 5.46875 C 18.625 5.46875 20.09375 5.015625 21.3125 4.109375 C 22.695312 3.054688 23.695312 2 24.3125 0.9375 Z M 24.3125 0.9375 " transform="translate(875 78)" /></g>
		<g fill="#5499d4" opacity="0.16"><path d="M 21.03125 -40.796875 L 21.03125 -33.171875 L 2.109375 -33.171875 L 2.109375 -27.546875 L 9.03125 -27.546875 C 11.65625 -20.5 14.921875 -14.5 19.296875 -9.546875 C 14.40625 -5.8125 8.40625 -3.078125 1.25 -1.15625 C 2.40625 0.234375 4.21875 2.96875 4.890625 4.46875 C 12.234375 2.15625 18.484375 -0.953125 23.71875 -5.1875 C 28.796875 -0.859375 35.046875 2.296875 42.8125 4.3125 C 43.6875 2.6875 45.546875 -0.046875 46.9375 -1.4375 C 39.59375 -3.078125 33.5 -5.90625 28.5625 -9.703125 C 33.03125 -14.546875 36.53125 -20.40625 39.125 -27.546875 L 46.078125 -27.546875 L 46.078125 -33.171875 L 26.921875 -33.171875 L 26.921875 -40.796875 Z M 24 -13.828125 C 20.296875 -17.71875 17.46875 -22.375 15.453125 -27.546875 L 32.296875 -27.546875 C 30.28125 -22.125 27.5 -17.5625 24 -13.828125 Z M 24 -13.828125 " transform="translate(978 72)" /></g>
		<g fill="#4996d5" opacity="0.13"><path d="M 3.703125 0.953125 L 5.4375 -1.15625 C 6.9375 -0.109375 8.765625 0.46875 10.640625 0.46875 C 15.40625 0.46875 19.78125 -3.203125 19.78125 -9.515625 C 19.78125 -12.28125 18.9375 -14.515625 17.609375 -16.1875 L 19.484375 -18.5 L 17.578125 -20.03125 L 15.84375 -17.890625 C 14.3125 -18.9375 12.515625 -19.515625 10.640625 -19.515625 C 5.84375 -19.515625 1.5 -15.84375 1.5 -9.515625 C 1.5 -6.765625 2.3125 -4.484375 3.671875 -2.828125 L 1.796875 -0.546875 Z M 10.640625 -3.4375 C 9.625 -3.4375 8.734375 -3.78125 8.0625 -4.421875 L 14.515625 -12.375 C 14.796875 -11.484375 14.921875 -10.4375 14.921875 -9.21875 C 14.921875 -5.75 13.21875 -3.4375 10.640625 -3.4375 Z M 6.765625 -6.65625 C 6.5 -7.546875 6.359375 -8.5625 6.359375 -9.796875 C 6.359375 -13.265625 8.03125 -15.609375 10.640625 -15.609375 C 11.65625 -15.609375 12.546875 -15.265625 13.21875 -14.65625 Z M 6.765625 -6.65625 " transform="translate(1094 132)" /></g>
		<g fill="#8aa6c6" opacity="0.16"><path d="M 7.828125 0 L 28.171875 0 L 28.171875 10.21875 L 34.46875 10.21875 L 35.09375 -1.53125 L 35.09375 -5.953125 L 30.859375 -5.953125 L 30.859375 -35.5625 L 10.65625 -35.5625 C 9.40625 -28.5625 8.828125 -24.8125 7.578125 -18.390625 C 5.859375 -9.546875 4.078125 -6.53125 2.546875 -5.953125 L 0.90625 -5.953125 L 0.90625 -1.53125 L 1.53125 10.21875 L 7.828125 10.21875 Z M 10.171875 -5.953125 C 11.765625 -8.59375 13.015625 -12.4375 13.921875 -17.421875 C 14.875 -22.21875 15.21875 -24.8125 16.03125 -29.609375 L 23.8125 -29.609375 L 23.8125 -5.953125 Z M 10.171875 -5.953125 " transform="translate(1038 290)" /></g>
		<g fill="#9b9caf" opacity="0.16"><path d="M 14.109375 -31.34375 C 17.375 -31.34375 19.53125 -27.84375 19.53125 -21.265625 C 19.53125 -14.640625 17.375 -11.140625 14.109375 -11.140625 C 10.890625 -11.140625 8.734375 -14.640625 8.734375 -21.265625 C 8.734375 -27.84375 10.890625 -31.34375 14.109375 -31.34375 Z M 32.875 -40.265625 L 32.875 -24.1875 L 25.4375 -24.1875 C 24.578125 -32.203125 20.0625 -37.15625 14.109375 -37.15625 C 7.484375 -37.15625 2.640625 -31.015625 2.640625 -21.265625 C 2.640625 -11.515625 7.484375 -5.328125 14.109375 -5.328125 C 20.25 -5.328125 24.8125 -10.609375 25.484375 -19.109375 L 32.875 -19.109375 L 32.875 4.3125 L 39.265625 4.3125 L 39.265625 -40.265625 Z M 32.875 -40.265625 " transform="translate(1095 378)" /></g>
		<g fill="#e3a958" opacity="0.13"><path d="M 21.484375 -28.53125 L 21.484375 2.953125 L 26.046875 2.953125 L 26.046875 -12.75 L 30.4375 -12.75 L 30.4375 -16.453125 L 26.046875 -16.453125 L 26.046875 -28.53125 Z M 2.78125 -25.265625 L 2.78125 -21.625 L 13.0625 -21.625 C 12.28125 -14.625 8.359375 -9.65625 1.046875 -5.875 L 3.609375 -2.453125 C 14.078125 -7.71875 17.6875 -15.8125 17.6875 -25.265625 Z M 2.78125 -25.265625 " transform="translate(1122 554)" /></g>
		<g fill="#dfab74" opacity="0.13"><path d="M 9.390625 8.265625 C 15.734375 8.265625 19.75 5.34375 19.75 1.5 C 19.75 -1.84375 17.234375 -3.265625 12.640625 -3.265625 L 9.390625 -3.265625 C 7.171875 -3.265625 6.390625 -3.8125 6.390625 -4.796875 C 6.390625 -5.609375 6.734375 -6.015625 7.203125 -6.453125 C 8.0625 -6.15625 8.9375 -6.015625 9.65625 -6.015625 C 13.765625 -6.015625 17.03125 -8.15625 17.03125 -12.484375 C 17.03125 -13.671875 16.65625 -14.71875 16.1875 -15.375 L 19.40625 -15.375 L 19.40625 -19.046875 L 12.578125 -19.046875 C 11.765625 -19.3125 10.78125 -19.515625 9.65625 -19.515625 C 5.640625 -19.515625 2 -17.109375 2 -12.640625 C 2 -10.40625 3.234375 -8.609375 4.5625 -7.65625 L 4.5625 -7.515625 C 3.40625 -6.703125 2.453125 -5.375 2.453125 -3.984375 C 2.453125 -2.375 3.15625 -1.390625 4.1875 -0.75 L 4.1875 -0.578125 C 2.375 0.40625 1.46875 1.765625 1.46875 3.359375 C 1.46875 6.734375 4.890625 8.265625 9.390625 8.265625 Z M 9.65625 -9.109375 C 8.03125 -9.109375 6.703125 -10.375 6.703125 -12.640625 C 6.703125 -14.859375 7.984375 -16.078125 9.65625 -16.078125 C 11.359375 -16.078125 12.6875 -14.859375 12.6875 -12.640625 C 12.6875 -10.375 11.359375 -9.109375 9.65625 -9.109375 Z M 10.125 5.0625 C 7.375 5.0625 5.609375 4.1875 5.609375 2.625 C 5.609375 1.796875 5.984375 1.046875 6.828125 0.375 C 7.546875 0.546875 8.328125 0.609375 9.453125 0.609375 L 11.796875 0.609375 C 13.84375 0.609375 14.953125 0.984375 14.953125 2.34375 C 14.953125 3.8125 13.015625 5.0625 10.125 5.0625 Z M 10.125 5.0625 " transform="translate(958 576)" /></g>
		<g fill="#dfab74" opacity="0.13"><path d="M 10.984375 0.46875 C 13.328125 0.46875 15.734375 -0.34375 17.609375 -1.625 L 15.90625 -4.6875 C 14.515625 -3.84375 13.1875 -3.40625 11.65625 -3.40625 C 8.8125 -3.40625 6.765625 -5 6.359375 -8.09375 L 18.09375 -8.09375 C 18.21875 -8.5625 18.328125 -9.484375 18.328125 -10.40625 C 18.328125 -15.703125 15.609375 -19.515625 10.375 -19.515625 C 5.84375 -19.515625 1.5 -15.671875 1.5 -9.515625 C 1.5 -3.234375 5.640625 0.46875 10.984375 0.46875 Z M 6.25 -11.453125 C 6.65625 -14.21875 8.4375 -15.640625 10.4375 -15.640625 C 12.921875 -15.640625 14.046875 -14.015625 14.046875 -11.453125 Z M 10.46875 -22.09375 L 17.171875 -28.125 L 13.765625 -31.421875 L 7.953125 -24.515625 Z M 10.46875 -22.09375 " transform="translate(970 512)" /></g>
	</g>

	<g aria-hidden="true">
		<g stroke="#ff7d96" class="net">
			<path d="M120 34 164 5 192 68 126 92 84 52" />
			<path d="M0 110 32 162 0 210" />
			<circle cx="164" cy="5" r="8" fill="#ff7d96" opacity="0.28" />
			<circle cx="126" cy="92" r="6" fill="#ff7d96" opacity="0.28" />
			<circle cx="32" cy="162" r="6" fill="#ff7d96" opacity="0.28" />
		</g>
		<g stroke="#67a9ef" class="net">
			<path d="M1108 20 1168 0 1188 74 1130 122 1078 92" />
			<path d="M1080 248 1140 220 1200 244" />
			<circle cx="1168" cy="0" r="6" fill="#67a9ef" opacity="0.32" />
			<circle cx="1130" cy="122" r="9" fill="#67a9ef" opacity="0.28" />
			<circle cx="1140" cy="220" r="7" fill="#67a9ef" opacity="0.28" />
		</g>
		<g stroke="#74b86e" class="net">
			<path d="M0 340 34 386 112 350 146 430 40 580 0 608" />
			<circle cx="34" cy="386" r="9" fill="#74b86e" opacity="0.26" />
			<circle cx="112" cy="350" r="7" fill="#74b86e" opacity="0.24" />
			<circle cx="146" cy="430" r="8" fill="#74b86e" opacity="0.24" />
			<circle cx="40" cy="580" r="8" fill="#74b86e" opacity="0.24" />
		</g>
		<g stroke="#efb371" class="net">
			<path d="M1048 388 1100 428 1140 402 1180 448 1136 506 1068 548 1038 462" />
			<circle cx="1100" cy="428" r="8" fill="#efb371" opacity="0.24" />
			<circle cx="1140" cy="402" r="7" fill="#efb371" opacity="0.24" />
			<circle cx="1180" cy="448" r="8" fill="#efb371" opacity="0.24" />
			<circle cx="1136" cy="506" r="9" fill="#efb371" opacity="0.24" />
			<circle cx="1068" cy="548" r="7" fill="#efb371" opacity="0.24" />
		</g>
		<g fill="#90a0b0" class="dot">
			<circle cx="238" cy="30" r="2" /><circle cx="260" cy="30" r="2" /><circle cx="282" cy="30" r="2" /><circle cx="304" cy="30" r="2" /><circle cx="326" cy="30" r="2" />
			<circle cx="238" cy="52" r="2" /><circle cx="260" cy="52" r="2" /><circle cx="282" cy="52" r="2" /><circle cx="304" cy="52" r="2" /><circle cx="326" cy="52" r="2" />
			<circle cx="870" cy="108" r="2" /><circle cx="892" cy="108" r="2" /><circle cx="914" cy="108" r="2" /><circle cx="936" cy="108" r="2" />
			<circle cx="870" cy="130" r="2" /><circle cx="892" cy="130" r="2" /><circle cx="914" cy="130" r="2" /><circle cx="936" cy="130" r="2" />
			<circle cx="790" cy="556" r="2" /><circle cx="812" cy="556" r="2" /><circle cx="834" cy="556" r="2" /><circle cx="856" cy="556" r="2" />
			<circle cx="790" cy="578" r="2" /><circle cx="812" cy="578" r="2" /><circle cx="834" cy="578" r="2" /><circle cx="856" cy="578" r="2" />
		</g>
	</g>

	<g aria-hidden="true" filter="url(#blur-xl)">
		<ellipse cx="600" cy="316" rx="500" ry="270" fill="#ffffff" opacity="0.22" />
	</g>
	<ellipse cx="600" cy="316" rx="456" ry="238" fill="#ffffff" opacity="0.12" />

	<g transform="translate(600 321) scale(1.05) translate(-600 -321)">
	<g fill="#ff0070">
		<path d="M 4.90625 0 L 12.90625 0 L 12.90625 -40.015625 L 4.90625 -40.015625 Z M 4.90625 0 " transform="translate(421 211.639648)" />
	</g>
	<g fill="#00a924">
		<path d="M 11.765625 0.75 C 13.609375 0.75 14.90625 0.4375 15.828125 0.046875 L 14.84375 -5.828125 C 14.3125 -5.71875 14.09375 -5.71875 13.765625 -5.71875 C 13.015625 -5.71875 12.203125 -6.3125 12.203125 -8.15625 L 12.203125 -43.09375 L 4.265625 -43.09375 L 4.265625 -8.484375 C 4.265625 -2.859375 6.203125 0.75 11.765625 0.75 Z M 11.765625 0.75 " transform="translate(514 211.639648)" />
		<path d="M 16.90625 0.75 C 24.46875 0.75 31.421875 -5.078125 31.421875 -15.125 C 31.421875 -25.15625 24.46875 -31 16.90625 -31 C 9.28125 -31 2.375 -25.15625 2.375 -15.125 C 2.375 -5.078125 9.28125 0.75 16.90625 0.75 Z M 16.90625 -5.71875 C 12.75 -5.71875 10.46875 -9.390625 10.46875 -15.125 C 10.46875 -20.796875 12.75 -24.515625 16.90625 -24.515625 C 21 -24.515625 23.328125 -20.796875 23.328125 -15.125 C 23.328125 -9.390625 21 -5.71875 16.90625 -5.71875 Z M 16.90625 -5.71875 " transform="translate(531 211.639648)" />
		<path d="M 11.0625 0 L 20.25 0 L 30.34375 -30.234375 L 22.734375 -30.234375 L 18.3125 -15.171875 C 17.5 -12.203125 16.6875 -9.078125 15.875 -6 L 15.609375 -6 C 14.734375 -9.078125 13.984375 -12.203125 13.125 -15.171875 L 8.75 -30.234375 L 0.75 -30.234375 Z M 11.0625 0 " transform="translate(564 211.639648)" />
		<path d="M 17.4375 0.75 C 21.171875 0.75 25 -0.546875 27.96875 -2.59375 L 25.265625 -7.453125 C 23.0625 -6.109375 20.953125 -5.40625 18.515625 -5.40625 C 13.984375 -5.40625 10.75 -7.9375 10.09375 -12.859375 L 28.734375 -12.859375 C 28.9375 -13.609375 29.109375 -15.0625 29.109375 -16.53125 C 29.109375 -24.953125 24.78125 -31 16.46875 -31 C 9.28125 -31 2.375 -24.890625 2.375 -15.125 C 2.375 -5.125 8.96875 0.75 17.4375 0.75 Z M 9.9375 -18.203125 C 10.578125 -22.578125 13.390625 -24.84375 16.578125 -24.84375 C 20.515625 -24.84375 22.296875 -22.25 22.296875 -18.203125 Z M 9.9375 -18.203125 " transform="translate(595 211.639648)" />
	</g>
	<g fill="#0084ff">
		<path d="M 6.90625 12.09375 C 13.65625 12.09375 16.90625 8.046875 19.546875 0.921875 L 30.296875 -30.234375 L 22.6875 -30.234375 L 18.515625 -16.203125 C 17.765625 -13.390625 17.015625 -10.46875 16.359375 -7.671875 L 16.09375 -7.671875 C 15.234375 -10.578125 14.46875 -13.5 13.546875 -16.203125 L 8.75 -30.234375 L 0.75 -30.234375 L 12.53125 -0.59375 L 11.984375 1.234375 C 11.125 3.890625 9.390625 5.828125 6.3125 5.828125 C 5.609375 5.828125 4.75 5.609375 4.21875 5.453125 L 2.75 11.5625 C 3.9375 11.875 5.125 12.09375 6.90625 12.09375 Z M 6.90625 12.09375 " transform="translate(670.5 211.639648)" />
		<path d="M 16.90625 0.75 C 24.46875 0.75 31.421875 -5.078125 31.421875 -15.125 C 31.421875 -25.15625 24.46875 -31 16.90625 -31 C 9.28125 -31 2.375 -25.15625 2.375 -15.125 C 2.375 -5.078125 9.28125 0.75 16.90625 0.75 Z M 16.90625 -5.71875 C 12.75 -5.71875 10.46875 -9.390625 10.46875 -15.125 C 10.46875 -20.796875 12.75 -24.515625 16.90625 -24.515625 C 21 -24.515625 23.328125 -20.796875 23.328125 -15.125 C 23.328125 -9.390625 21 -5.71875 16.90625 -5.71875 Z M 16.90625 -5.71875 " transform="translate(701.5 211.639648)" />
		<path d="M 13.28125 0.75 C 17.4375 0.75 20.296875 -1.296875 22.890625 -4.375 L 23.109375 -4.375 L 23.703125 0 L 30.1875 0 L 30.1875 -30.234375 L 22.25 -30.234375 L 22.25 -9.828125 C 20.203125 -7.125 18.578125 -6.046875 16.140625 -6.046875 C 13.171875 -6.046875 11.828125 -7.671875 11.828125 -12.359375 L 11.828125 -30.234375 L 3.9375 -30.234375 L 3.9375 -11.390625 C 3.9375 -3.78125 6.75 0.75 13.28125 0.75 Z M 13.28125 0.75 " transform="translate(735.5 211.639648)" />
	</g>
	<g fill="#ff0070">
		<path d="M 4.90625 0 L 19.171875 0 C 27.96875 0 34.609375 -3.71875 34.609375 -11.765625 C 34.609375 -17.125 31.484375 -20.203125 27.15625 -21.21875 L 27.15625 -21.4375 C 30.5625 -22.6875 32.609375 -26.40625 32.609375 -30.125 C 32.609375 -37.578125 26.359375 -40.015625 18.140625 -40.015625 L 4.90625 -40.015625 Z M 12.90625 -23.703125 L 12.90625 -33.859375 L 17.65625 -33.859375 C 22.46875 -33.859375 24.84375 -32.453125 24.84375 -28.9375 C 24.84375 -25.765625 22.6875 -23.703125 17.609375 -23.703125 Z M 12.90625 -6.15625 L 12.90625 -17.8125 L 18.46875 -17.8125 C 23.96875 -17.8125 26.84375 -16.140625 26.84375 -12.265625 C 26.84375 -8.09375 23.875 -6.15625 18.46875 -6.15625 Z M 12.90625 -6.15625 " transform="translate(313.5 467.63964799999997)" />
		<path d="M 17.4375 0.75 C 21.171875 0.75 25 -0.546875 27.96875 -2.59375 L 25.265625 -7.453125 C 23.0625 -6.109375 20.953125 -5.40625 18.515625 -5.40625 C 13.984375 -5.40625 10.75 -7.9375 10.09375 -12.859375 L 28.734375 -12.859375 C 28.9375 -13.609375 29.109375 -15.0625 29.109375 -16.53125 C 29.109375 -24.953125 24.78125 -31 16.46875 -31 C 9.28125 -31 2.375 -24.890625 2.375 -15.125 C 2.375 -5.125 8.96875 0.75 17.4375 0.75 Z M 9.9375 -18.203125 C 10.578125 -22.578125 13.390625 -24.84375 16.578125 -24.84375 C 20.515625 -24.84375 22.296875 -22.25 22.296875 -18.203125 Z M 9.9375 -18.203125 " transform="translate(350.5 467.63964799999997)" />
		<path d="M 4.265625 0 L 12.203125 0 L 12.203125 -20.796875 C 14.421875 -23 16.03125 -24.1875 18.46875 -24.1875 C 21.4375 -24.1875 22.734375 -22.578125 22.734375 -17.875 L 22.734375 0 L 30.671875 0 L 30.671875 -18.84375 C 30.671875 -26.453125 27.859375 -31 21.328125 -31 C 17.21875 -31 14.140625 -28.84375 11.5 -26.25 L 11.34375 -26.25 L 10.75 -30.234375 L 4.265625 -30.234375 Z M 4.265625 0 " transform="translate(381.5 467.63964799999997)" />
	</g>
	<g fill="#0084ff">
		<path d="M 12.90625 0.75 C 20.734375 0.75 24.953125 -3.453125 24.953125 -8.796875 C 24.953125 -14.359375 20.515625 -16.421875 16.53125 -17.921875 C 13.28125 -19.109375 10.53125 -19.921875 10.53125 -22.140625 C 10.53125 -23.875 11.828125 -25.0625 14.578125 -25.0625 C 16.796875 -25.0625 18.90625 -23.96875 21.0625 -22.46875 L 24.625 -27.265625 C 22.140625 -29.21875 18.734375 -31 14.359375 -31 C 7.453125 -31 3.078125 -27.15625 3.078125 -21.765625 C 3.078125 -16.6875 7.34375 -14.359375 11.171875 -12.90625 C 14.359375 -11.65625 17.5 -10.640625 17.5 -8.375 C 17.5 -6.484375 16.140625 -5.1875 13.125 -5.1875 C 10.265625 -5.1875 7.71875 -6.421875 5.015625 -8.484375 L 1.40625 -3.453125 C 4.421875 -0.96875 8.859375 0.75 12.90625 0.75 Z M 12.90625 0.75 " transform="translate(480.5 467.63964799999997)" />
		<path d="M 17.4375 0.75 C 21.171875 0.75 25 -0.546875 27.96875 -2.59375 L 25.265625 -7.453125 C 23.0625 -6.109375 20.953125 -5.40625 18.515625 -5.40625 C 13.984375 -5.40625 10.75 -7.9375 10.09375 -12.859375 L 28.734375 -12.859375 C 28.9375 -13.609375 29.109375 -15.0625 29.109375 -16.53125 C 29.109375 -24.953125 24.78125 -31 16.46875 -31 C 9.28125 -31 2.375 -24.890625 2.375 -15.125 C 2.375 -5.125 8.96875 0.75 17.4375 0.75 Z M 9.9375 -18.203125 C 10.578125 -22.578125 13.390625 -24.84375 16.578125 -24.84375 C 20.515625 -24.84375 22.296875 -22.25 22.296875 -18.203125 Z M 9.9375 -18.203125 " transform="translate(507.5 467.63964799999997)" />
		<path d="M 4.265625 0 L 12.203125 0 L 12.203125 -20.796875 C 14.421875 -23 16.03125 -24.1875 18.46875 -24.1875 C 21.4375 -24.1875 22.734375 -22.578125 22.734375 -17.875 L 22.734375 0 L 30.671875 0 L 30.671875 -18.84375 C 30.671875 -26.453125 27.859375 -31 21.328125 -31 C 17.21875 -31 14.140625 -28.84375 11.5 -26.25 L 11.34375 -26.25 L 10.75 -30.234375 L 4.265625 -30.234375 Z M 4.265625 0 " transform="translate(538.5 467.63964799999997)" />
		<path d="M 4.265625 0 L 12.203125 0 L 12.203125 -30.234375 L 4.265625 -30.234375 Z M 8.265625 -35.15625 C 10.96875 -35.15625 12.859375 -36.828125 12.859375 -39.46875 C 12.859375 -42.0625 10.96875 -43.796875 8.265625 -43.796875 C 5.453125 -43.796875 3.671875 -42.0625 3.671875 -39.46875 C 3.671875 -36.828125 5.453125 -35.15625 8.265625 -35.15625 Z M 8.265625 -35.15625 " transform="translate(573.5 467.63964799999997)" />
	</g>
	<g fill="#00a924">
		<path d="M 12.90625 0.75 C 20.734375 0.75 24.953125 -3.453125 24.953125 -8.796875 C 24.953125 -14.359375 20.515625 -16.421875 16.53125 -17.921875 C 13.28125 -19.109375 10.53125 -19.921875 10.53125 -22.140625 C 10.53125 -23.875 11.828125 -25.0625 14.578125 -25.0625 C 16.796875 -25.0625 18.90625 -23.96875 21.0625 -22.46875 L 24.625 -27.265625 C 22.140625 -29.21875 18.734375 -31 14.359375 -31 C 7.453125 -31 3.078125 -27.15625 3.078125 -21.765625 C 3.078125 -16.6875 7.34375 -14.359375 11.171875 -12.90625 C 14.359375 -11.65625 17.5 -10.640625 17.5 -8.375 C 17.5 -6.484375 16.140625 -5.1875 13.125 -5.1875 C 10.265625 -5.1875 7.71875 -6.421875 5.015625 -8.484375 L 1.40625 -3.453125 C 4.421875 -0.96875 8.859375 0.75 12.90625 0.75 Z M 12.90625 0.75 " transform="translate(630 467.63964799999997)" />
		<path d="M 17.4375 0.75 C 21.171875 0.75 25 -0.546875 27.96875 -2.59375 L 25.265625 -7.453125 C 23.0625 -6.109375 20.953125 -5.40625 18.515625 -5.40625 C 13.984375 -5.40625 10.75 -7.9375 10.09375 -12.859375 L 28.734375 -12.859375 C 28.9375 -13.609375 29.109375 -15.0625 29.109375 -16.53125 C 29.109375 -24.953125 24.78125 -31 16.46875 -31 C 9.28125 -31 2.375 -24.890625 2.375 -15.125 C 2.375 -5.125 8.96875 0.75 17.4375 0.75 Z M 9.9375 -18.203125 C 10.578125 -22.578125 13.390625 -24.84375 16.578125 -24.84375 C 20.515625 -24.84375 22.296875 -22.25 22.296875 -18.203125 Z M 9.9375 -18.203125 " transform="translate(657 467.63964799999997)" />
		<path d="M 11.0625 0 L 20.25 0 L 30.34375 -30.234375 L 22.734375 -30.234375 L 18.3125 -15.171875 C 17.5 -12.203125 16.6875 -9.078125 15.875 -6 L 15.609375 -6 C 14.734375 -9.078125 13.984375 -12.203125 13.125 -15.171875 L 8.75 -30.234375 L 0.75 -30.234375 Z M 11.0625 0 " transform="translate(688 467.63964799999997)" />
		<path d="M 4.265625 0 L 12.203125 0 L 12.203125 -30.234375 L 4.265625 -30.234375 Z M 8.265625 -35.15625 C 10.96875 -35.15625 12.859375 -36.828125 12.859375 -39.46875 C 12.859375 -42.0625 10.96875 -43.796875 8.265625 -43.796875 C 5.453125 -43.796875 3.671875 -42.0625 3.671875 -39.46875 C 3.671875 -36.828125 5.453125 -35.15625 8.265625 -35.15625 Z M 8.265625 -35.15625 " transform="translate(719 467.63964799999997)" />
		<path d="M 6.90625 12.09375 C 13.65625 12.09375 16.90625 8.046875 19.546875 0.921875 L 30.296875 -30.234375 L 22.6875 -30.234375 L 18.515625 -16.203125 C 17.765625 -13.390625 17.015625 -10.46875 16.359375 -7.671875 L 16.09375 -7.671875 C 15.234375 -10.578125 14.46875 -13.5 13.546875 -16.203125 L 8.75 -30.234375 L 0.75 -30.234375 L 12.53125 -0.59375 L 11.984375 1.234375 C 11.125 3.890625 9.390625 5.828125 6.3125 5.828125 C 5.609375 5.828125 4.75 5.609375 4.21875 5.453125 L 2.75 11.5625 C 3.9375 11.875 5.125 12.09375 6.90625 12.09375 Z M 6.90625 12.09375 " transform="translate(735 467.63964799999997)" />
		<path d="M 16.90625 0.75 C 24.46875 0.75 31.421875 -5.078125 31.421875 -15.125 C 31.421875 -25.15625 24.46875 -31 16.90625 -31 C 9.28125 -31 2.375 -25.15625 2.375 -15.125 C 2.375 -5.078125 9.28125 0.75 16.90625 0.75 Z M 16.90625 -5.71875 C 12.75 -5.71875 10.46875 -9.390625 10.46875 -15.125 C 10.46875 -20.796875 12.75 -24.515625 16.90625 -24.515625 C 21 -24.515625 23.328125 -20.796875 23.328125 -15.125 C 23.328125 -9.390625 21 -5.71875 16.90625 -5.71875 Z M 16.90625 -5.71875 " transform="translate(766 467.63964799999997)" />
		<path d="M 4.265625 0 L 12.203125 0 L 12.203125 -18.03125 C 13.9375 -22.40625 16.734375 -23.96875 19.0625 -23.96875 C 20.359375 -23.96875 21.21875 -23.8125 22.296875 -23.484375 L 23.59375 -30.34375 C 22.734375 -30.71875 21.765625 -31 20.09375 -31 C 16.953125 -31 13.71875 -28.84375 11.5 -24.890625 L 11.34375 -24.890625 L 10.75 -30.234375 L 4.265625 -30.234375 Z M 4.265625 0 " transform="translate(800 467.63964799999997)" />
		<path d="M 13.28125 0.75 C 17.4375 0.75 20.296875 -1.296875 22.890625 -4.375 L 23.109375 -4.375 L 23.703125 0 L 30.1875 0 L 30.1875 -30.234375 L 22.25 -30.234375 L 22.25 -9.828125 C 20.203125 -7.125 18.578125 -6.046875 16.140625 -6.046875 C 13.171875 -6.046875 11.828125 -7.671875 11.828125 -12.359375 L 11.828125 -30.234375 L 3.9375 -30.234375 L 3.9375 -11.390625 C 3.9375 -3.78125 6.75 0.75 13.28125 0.75 Z M 13.28125 0.75 " transform="translate(824 467.63964799999997)" />
		<path d="M 4.265625 0 L 12.203125 0 L 12.203125 -20.796875 C 14.3125 -23.109375 16.25 -24.1875 17.984375 -24.1875 C 20.890625 -24.1875 22.25 -22.578125 22.25 -17.875 L 22.25 0 L 30.125 0 L 30.125 -20.796875 C 32.296875 -23.109375 34.234375 -24.1875 35.96875 -24.1875 C 38.828125 -24.1875 40.171875 -22.578125 40.171875 -17.875 L 40.171875 0 L 48.0625 0 L 48.0625 -18.84375 C 48.0625 -26.453125 45.140625 -31 38.71875 -31 C 34.828125 -31 31.859375 -28.625 29.046875 -25.703125 C 27.640625 -29.046875 25.109375 -31 20.796875 -31 C 16.84375 -31 14.046875 -28.84375 11.5 -26.1875 L 11.34375 -26.1875 L 10.75 -30.234375 L 4.265625 -30.234375 Z M 4.265625 0 " transform="translate(858 467.63964799999997)" />
	</g>

	<g class="line">
		<path d="M430 284 C410 316 385 342 365 370" stroke="#ff0070" />
		<path d="M720 284 C670 318 585 338 535 370" stroke="#0084ff" />
		<path d="M570 284 C620 318 720 338 770 370" stroke="#00a924" />
	</g>

	<g>
		<circle cx="430" cy="278" r="8" fill="#ff0070" />
		<circle cx="570" cy="278" r="8" fill="#00a924" />
		<circle cx="720" cy="278" r="8" fill="#0084ff" />
		<circle cx="365" cy="371" r="8" fill="#ff0070" />
		<circle cx="535" cy="371" r="8" fill="#0084ff" />
		<circle cx="770" cy="371" r="8" fill="#00a924" />
	</g>
	</g>
</svg>
